<?xml version="1.0" encoding="UTF-8"?>
<svg width="21px" height="22px" viewBox="0 0 21 22" version="1.1" xmlns="http://www.w3.org/2000/svg" xmlns:xlink="http://www.w3.org/1999/xlink">
    <title>icon/tabbar/primary/1_me</title>
    <g id="Page-1" stroke="none" stroke-width="1" fill="none" fill-rule="evenodd">
        <g id="UI/for_flow/Home_Mission_News_Notification/no_applewallet2_newlayout" transform="translate(-40.000000, -740.000000)" fill="#000000" fill-rule="nonzero">
            <g id="components/tabbar/ui/1_me" transform="translate(0.000000, 696.000000)">
                <g id="icon/tabbar/primary/1_me" transform="translate(40.000000, 43.000000)">
                    <path d="M7.22850261,22.5 C7.40570872,22.5 7.55906016,22.4350586 7.68855693,22.3051758 C7.81805371,22.175293 7.88280209,22.0214844 7.88280209,21.84375 L7.90324895,15.28125 L13.1171979,15.28125 L13.1171979,21.84375 C13.1171979,22.0214844 13.1819463,22.175293 13.3114431,22.3051758 C13.4409398,22.4350586 13.5942913,22.5 13.7714974,22.5 L18.3515937,22.5 C18.5287998,22.5 18.6821513,22.4350586 18.811648,22.3051758 C18.9411448,22.175293 19.0058932,22.0214844 19.0058932,21.84375 L19.0058932,12.0205078 L19.8851081,12.9433594 C19.9396331,13.0117187 20.0077893,13.0629883 20.0895767,13.097168 C20.1713641,13.1313477 20.2599672,13.1484375 20.3553859,13.1484375 C20.4371733,13.1484375 20.5155529,13.1313477 20.5905248,13.097168 C20.6654966,13.0629883 20.7370606,13.0185547 20.8052168,12.9638672 C20.9278979,12.8271484 20.9926463,12.6699219 20.9994619,12.4921875 C21.0062775,12.3144531 20.9483448,12.1572266 20.8256636,12.0205078 L10.9907246,1.70507812 C10.9361997,1.63671875 10.8680435,1.58544922 10.786256,1.55126953 C10.7044686,1.51708984 10.6158655,1.5 10.5204469,1.5 C10.4386594,1.5 10.356872,1.51708984 10.2750846,1.55126953 C10.1932971,1.58544922 10.1183253,1.63671875 10.0501691,1.70507812 L0.174336374,12.0205078 C0.0516552219,12.1572266 -0.00627754433,12.3144531 0.000538075228,12.4921875 C0.00735369478,12.6699219 0.0721020806,12.8271484 0.194783233,12.9638672 C0.331095624,13.0869141 0.487854873,13.1450195 0.665060982,13.1381836 C0.84226709,13.1313477 0.99902634,13.0664062 1.13533873,12.9433594 L2.01455365,12.0205078 L2.01455365,21.84375 C2.01455365,22.0214844 2.07589423,22.175293 2.19857538,22.3051758 C2.32125653,22.4350586 2.47801578,22.5 2.66885313,22.5 L7.22850261,22.5 Z" id="î©"></path>
                </g>
            </g>
        </g>
    </g>
</svg>