<?xml version="1.0" encoding="UTF-8"?>
<svg width="29px" height="27px" viewBox="0 0 29 27" version="1.1" xmlns="http://www.w3.org/2000/svg" xmlns:xlink="http://www.w3.org/1999/xlink">
    <title>eshop</title>
    <g id="Page-1" stroke="none" stroke-width="1" fill="none" fill-rule="evenodd">
        <g id="UI/for_flow/Home_Mission_News_Notification/no_applewallet2_newlayout" transform="translate(-347.000000, -236.000000)" fill="#4D4D4D" fill-rule="nonzero" stroke="#4D4D4D" stroke-width="0.542846064">
            <g id="Group-5" transform="translate(339.000000, 225.000000)">
                <g id="eshop" transform="translate(9.000000, 12.000000)">
                    <path d="M11.3213109,20.3056707 C10.0119683,20.3056707 8.9467331,21.3746297 8.9467331,22.6885496 C8.9467331,24.0024695 10.0119683,25.0714286 11.3213109,25.0714286 C12.6306536,25.0714286 13.6958888,24.0024695 13.6958888,22.6885496 C13.695836,21.3746297 12.6306009,20.3056707 11.3213109,20.3056707 Z M11.3213109,23.7408393 C10.7430254,23.7408393 10.2725817,23.2686981 10.2725817,22.6884439 C10.2725817,22.1081367 10.7430781,21.6360484 11.3213109,21.6360484 C11.8995438,21.6360484 12.3700402,22.1081896 12.3700402,22.6884439 C12.3700402,23.2688038 11.8995438,23.7408393 11.3213109,23.7408393 Z" id="Shape"></path>
                    <path d="M19.6504476,20.3056707 C18.3411049,20.3056707 17.2758698,21.3746297 17.2758698,22.6885496 C17.2758698,24.0024695 18.3411049,25.0714286 19.6504476,25.0714286 C20.9597904,25.0714286 22.0250254,24.0024695 22.0250254,22.6885496 C22.0249727,21.3746297 20.9597376,20.3056707 19.6504476,20.3056707 Z M19.6504476,23.7408393 C19.072162,23.7408393 18.6017184,23.2686981 18.6017184,22.6884439 C18.6017184,22.1081367 19.0722148,21.6360484 19.6504476,21.6360484 C20.2287332,21.6360484 20.6991768,22.1081896 20.6991768,22.6884439 C20.6991768,23.2688038 20.2286804,23.7408393 19.6504476,23.7408393 Z" id="Shape"></path>
                    <path d="M20.2350613,7.76006122 L10.7350097,7.76006122 C10.3688747,7.76006122 10.0720855,8.05788801 10.0720855,8.42530298 C10.0720855,8.79271794 10.3689274,9.09054473 10.7350097,9.09054473 L20.2350613,9.09054473 C20.6011963,9.09054473 20.8979856,8.79271794 20.8979856,8.42530298 C20.8979856,8.0578351 20.6011963,7.76006122 20.2350613,7.76006122 Z" id="Path"></path>
                    <path d="M19.7180004,11.214598 L11.2521234,11.214598 C10.8859883,11.214598 10.5891991,11.5124248 10.5891991,11.8798397 C10.5891991,12.2472547 10.8859883,12.5450815 11.2521234,12.5450815 L19.7179476,12.5450815 C20.0840827,12.5450815 20.380872,12.2472547 20.380872,11.8798397 C20.380872,11.5124776 20.0840827,11.214598 19.7180004,11.214598 Z" id="Path"></path>
                    <path d="M26.7016186,4.79602849 C26.4488097,4.48465449 26.0741846,4.30610659 25.6738776,4.30610659 L5.02445302,4.30610659 L4.60742929,2.27460826 C4.52036477,1.85083481 4.23232942,1.49500906 3.8367686,1.32265265 L0.927041954,0.0552483212 C0.591123751,-0.0911778916 0.200730899,0.063503648 0.0550257198,0.400490321 C-0.0908376634,0.737582831 0.0633050224,1.12939334 0.399065023,1.27560787 L3.3088444,2.54306513 L6.51646773,18.1679116 C6.64281938,18.7832509 7.18893695,19.2298852 7.81505262,19.2298852 L23.6968644,19.2298852 C24.0629995,19.2298852 24.3597888,18.9320584 24.3597888,18.5646435 C24.3597888,18.1972286 24.0629995,17.8994018 23.6968644,17.8994018 L7.81510535,17.8994018 L7.42492344,15.9987715 L23.8196302,15.9987715 C24.4456932,15.9987715 24.9918634,15.5521372 25.1181624,14.9367978 L26.9724625,5.90488821 C27.0531989,5.51159598 26.95448,5.10734956 26.7016186,4.79602849 Z M23.8196302,14.6683939 L7.15181193,14.6683939 L5.29761727,5.63653717 L25.6738249,5.63653717 L23.8196302,14.6683939 Z" id="Shape"></path>
                </g>
            </g>
        </g>
    </g>
</svg>