<?xml version="1.0" encoding="UTF-8"?>
<svg width="24px" height="25px" viewBox="0 0 24 25" version="1.1" xmlns="http://www.w3.org/2000/svg" xmlns:xlink="http://www.w3.org/1999/xlink">
    <title>icon/notification</title>
    <g id="Page-1" stroke="none" stroke-width="1" fill="none" fill-rule="evenodd">
        <g id="UI/for_flow/Home_Mission_News_Notification/no_applewallet2_newlayout" transform="translate(-324.000000, -76.000000)" fill="#000000" fill-rule="nonzero">
            <g id="components/ui/header" transform="translate(27.705882, 68.000000)">
                <g id="Combined-Shape" transform="translate(295.294118, 5.000000)">
                    <path d="M12.9634704,3.5 C13.150177,3.5 13.3520508,3.50341797 13.5387573,3.53503418 C14.0157776,3.61428834 14.3379212,4.06588744 14.2584534,4.54183959 C14.1791992,5.01779173 13.7194824,5.33993529 13.2516479,5.26046752 C13.1582947,5.24530027 13.0557556,5.25 12.9634704,5.25 C9.42630006,5.25 6.546875,8.1281433 6.546875,11.6665954 L6.546875,14.9215698 C6.546875,17.7403259 5.3112793,20.4074096 3.16009519,22.2377319 C3.14257812,22.2518311 3.12741087,22.2646484 3.10861205,22.2774658 C3.0772095,22.3171997 3.046875,22.3778686 3.046875,22.4584046 C3.046875,22.6169128 3.17996217,22.75 3.33847045,22.75 L22.5884704,22.75 C22.7471924,22.75 22.8802796,22.6169128 22.8802796,22.4584046 C22.8802796,22.3765869 22.8499451,22.3171997 22.8172607,22.2774658 C22.7997436,22.2646484 22.7845764,22.2518311 22.7670593,22.2377319 C20.6145935,20.4061279 19.3802796,17.7403259 19.3802796,14.9215698 L19.3802796,13.6500854 C19.3802796,13.1670837 19.7722779,12.7750854 20.2552796,12.7750854 C20.7382812,12.7750854 21.1302796,13.1670837 21.1302796,13.6500854 L21.1302796,14.9215698 C21.1302796,17.1932373 22.1114502,19.3444214 23.826416,20.84021 C23.8578186,20.861145 23.8881531,20.8833618 23.9161377,20.9079285 C24.3700867,21.2952271 24.6302796,21.8609009 24.6302796,22.4584046 C24.6302796,23.584198 23.7144775,24.5 22.5884704,24.5 L17.2504227,24.5006626 C16.8435848,26.4950563 15.0753855,28 12.9634704,28 C10.8517425,28 9.08340262,26.4950563 8.67652684,24.5006626 L3.33847045,24.5 C2.21267702,24.5 1.296875,23.584198 1.296875,22.4584046 C1.296875,21.8609009 1.55706784,21.2952271 2.01080325,20.9066467 C2.04006959,20.881012 2.07147214,20.8577271 2.10415651,20.8365784 C3.81677246,19.3420715 4.796875,17.1919556 4.796875,14.9215698 L4.796875,11.6665954 C4.796875,7.16342162 8.46136472,3.5 12.9634704,3.5 Z M15.4381922,24.50093 L10.4887487,24.50093 C10.8502742,25.5192049 11.8235803,26.25 12.9634704,26.25 C14.1033606,26.25 15.0766666,25.5192049 15.4381922,24.50093 Z"></path>
                </g>
            </g>
        </g>
    </g>
</svg>