<?xml version="1.0" encoding="UTF-8"?>
<svg width="24px" height="24px" viewBox="0 0 24 24" version="1.1" xmlns="http://www.w3.org/2000/svg" xmlns:xlink="http://www.w3.org/1999/xlink">
    <title>icon/reward</title>
    <g id="Page-1" stroke="none" stroke-width="1" fill="none" fill-rule="evenodd">
        <g id="UI/for_flow/Home_Mission_News_Notification/no_applewallet2_newlayout" transform="translate(-29.000000, -154.000000)" fill="#000000" fill-rule="nonzero">
            <g id="icon/reward" transform="translate(29.000000, 154.000000)">
                <path d="M12,0 C18.627417,0 24,5.372583 24,12 C24,18.627417 18.627417,24 12,24 C5.372583,24 0,18.627417 0,12 C0,5.372583 5.372583,0 12,0 Z M12,1.71428571 C6.31935686,1.71428571 1.71428571,6.31935686 1.71428571,12 C1.71428571,17.6806431 6.31935686,22.2857143 12,22.2857143 C17.6806431,22.2857143 22.2857143,17.6806431 22.2857143,12 C22.2857143,6.31935686 17.6806431,1.71428571 12,1.71428571 Z M11.7637971,5.19490335 C12.0042753,5.0740098 12.3002485,5.17072464 12.4235706,5.41251174 L12.4235706,5.41251174 L14.2549047,9.0876757 L18.392363,9.6800541 C18.5156852,9.69214345 18.6266751,9.74050087 18.7130006,9.82512636 C18.90415,10.0125114 18.90415,10.3207899 18.7191667,10.5081749 L18.7191667,10.5081749 L15.7224383,13.3733521 L16.4253746,17.4172414 C16.450039,17.5381349 16.4253746,17.6590285 16.3637135,17.761788 C16.221893,17.9914857 15.9197538,18.0700666 15.6854417,17.931039 L15.6854417,17.931039 L11.9796109,16.0209209 L8.25528173,17.9249943 C8.16279012,17.9733517 8.05180018,17.9914857 7.94697634,17.9733517 C7.6756676,17.931039 7.49685047,17.6832072 7.54001323,17.4172414 L7.54001323,17.4172414 L8.29227838,13.3733521 L5.29554998,10.5081749 C5.21539057,10.4356388 5.16606171,10.338924 5.14756339,10.2301198 C5.11056674,9.96415394 5.29554998,9.71632216 5.56685872,9.6800541 L5.56685872,9.6800541 L9.69198486,9.09372038 L11.5418172,5.41251174 C11.5911461,5.3157969 11.6651394,5.24326077 11.7637971,5.19490335 Z" id="Combined-Shape"></path>
            </g>
        </g>
    </g>
</svg>