<?xml version="1.0" encoding="UTF-8"?>
<svg width="21px" height="21px" viewBox="0 0 21 21" version="1.1" xmlns="http://www.w3.org/2000/svg" xmlns:xlink="http://www.w3.org/1999/xlink">
    <title>icon/tabbar/primary/1_me copy 2</title>
    <g id="Page-1" stroke="none" stroke-width="1" fill="none" fill-rule="evenodd">
        <g id="UI/for_flow/Home_Mission_News_Notification/no_applewallet2_newlayout" transform="translate(-253.000000, -741.000000)" fill="#9B9B9B" fill-rule="nonzero">
            <g id="components/tabbar/ui/1_me" transform="translate(0.000000, 696.000000)">
                <g id="Group" transform="translate(253.000000, 43.000000)">
                    <g id="restaurant" transform="translate(0.000000, 2.000000)">
                        <path d="M20.4596864,17.8551435 L12.2202681,9.62061181 L2.59389929,0 L1.84159298,0 L1.68797984,0.390099074 C1.28254457,1.41975391 1.10931425,2.47286966 1.18708526,3.43546404 C1.27573191,4.53271253 1.69282257,5.48267412 2.39333626,6.18276886 L9.90819131,13.6931297 L10.8993921,12.7025216 L17.8468676,20.4664817 C18.5379831,21.1571839 19.7275308,21.1981994 20.4596864,20.4664817 C21.1801045,19.7464944 21.1801045,18.5750898 20.4596864,17.8551435 Z" id="Path"></path>
                        <path d="M6.42585566,11.9536594 L0.540252045,17.8357431 C-0.180084015,18.5556484 -0.180084015,19.727094 0.540252045,20.4469993 C1.22455489,21.1308929 2.40835694,21.1912678 3.15307083,20.4469993 L9.03871548,14.5648746 L6.42585566,11.9536594 Z" id="Path"></path>
                        <path d="M20.1137593,3.49653622 L16.7751051,6.83315274 L15.9041108,5.96272034 L19.242765,2.6260628 L18.3718117,1.7556304 L15.0331985,5.09224692 L14.1622452,4.22181452 L17.5008995,0.885198005 L16.6299872,0.0148066203 L12.2752209,4.36696862 C11.7424792,4.89939172 11.4243772,5.60633606 11.3793973,6.35765925 C11.3680292,6.5480125 11.324855,6.73524858 11.25324,6.91333818 L14.0820939,9.74050031 C14.2602901,9.66884612 14.4476792,9.62573875 14.6381054,9.61437744 C15.3898781,9.56954742 16.0972455,9.25155372 16.6299872,8.71913062 L20.9847536,4.36700964 L20.1137593,3.49653622 Z" id="Path"></path>
                    </g>
                </g>
            </g>
        </g>
    </g>
</svg>