<?xml version="1.0" encoding="UTF-8"?>
<svg width="21px" height="21px" viewBox="0 0 21 21" version="1.1" xmlns="http://www.w3.org/2000/svg" xmlns:xlink="http://www.w3.org/1999/xlink">
    <title>icon/tabbar/primary/1_me copy</title>
    <g id="Page-1" stroke="none" stroke-width="1" fill="none" fill-rule="evenodd">
        <g id="UI/for_flow/Home_Mission_News_Notification/no_applewallet2_newlayout" transform="translate(-102.000000, -741.000000)" fill="#9B9B9B" fill-rule="nonzero">
            <g id="components/tabbar/ui/1_me" transform="translate(0.000000, 696.000000)">
                <g id="icon/tabbar/primary/1_me-copy" transform="translate(102.000000, 43.000000)">
                    <path d="M19.1132812,5.6088418 L14.3530898,5.6088418 C14.9771836,4.7137168 14.8908867,3.47016406 14.0928867,2.67220508 C13.1973516,1.77662891 11.7401895,1.77662891 10.8446543,2.67220508 C10.744125,2.77273437 10.6240723,2.91829883 10.500041,3.16451562 C10.3759687,2.91829883 10.255957,2.77273437 10.1554277,2.67220508 C9.25989258,1.77662891 7.80273047,1.77662891 6.90719531,2.67220508 C6.10923633,3.47016406 6.02293945,4.71367578 6.64699219,5.6088418 L1.88671875,5.6088418 C0.846398438,5.6088418 1.77635684e-15,6.45524023 1.77635684e-15,7.49556055 L1.77635684e-15,8.97212305 C1.77635684e-15,9.81228711 0.552111328,10.5256719 1.3125,10.7691816 L1.3125,21.112748 C1.3125,22.1530684 2.15889844,22.9994668 3.19921875,22.9994668 L9.1875,22.9994668 L11.8125,22.9994668 L17.8007812,22.9994668 C18.8411016,22.9994668 19.6875,22.1530684 19.6875,21.112748 L19.6875,10.7691816 C20.4478887,10.5256309 21,9.81224609 21,8.97212305 L21,7.49556055 C21,6.45524023 20.1536016,5.6088418 19.1132812,5.6088418 Z M11.15625,9.5463418 L9.84375,9.5463418 L9.84375,6.9213418 L11.15625,6.9213418 L11.15625,9.5463418 Z M11.3106328,5.05332617 C11.513332,3.88745703 11.746752,3.62622852 11.7727148,3.60026563 C11.964627,3.40835352 12.216709,3.31241797 12.468791,3.31241797 C12.720873,3.31241797 12.9729551,3.40835352 13.1648672,3.60026563 C13.5486504,3.98408984 13.5486504,4.60855273 13.1648672,4.99237695 C13.1390684,5.01817578 12.8793984,5.2502832 11.7223477,5.45261328 C11.5539375,5.4820625 11.3895879,5.50671289 11.2379531,5.52709766 C11.2578867,5.37894922 11.2819219,5.21837305 11.3106328,5.05332617 Z M7.83517383,3.60026563 C8.02708594,3.40835352 8.27916797,3.31241797 8.53125,3.31241797 C8.78333203,3.31241797 9.03541406,3.40835352 9.22732617,3.60026563 C9.253125,3.62606445 9.48523242,3.88573438 9.6875625,5.04274414 C9.71701172,5.2111543 9.74166211,5.37554492 9.76204687,5.52717969 C9.61389844,5.50720508 9.45328125,5.48316992 9.28827539,5.45445898 C8.12240625,5.25175977 7.86117773,5.01833984 7.83521484,4.99237695 C7.45139062,4.60859375 7.45139062,3.98408984 7.83517383,3.60026563 L7.83517383,3.60026563 Z M1.3125,7.49556055 C1.3125,7.17891992 1.57007812,6.9213418 1.88671875,6.9213418 L8.53125,6.9213418 L8.53125,9.5463418 L1.96875,9.5463418 L1.88671875,9.5463418 C1.57007812,9.5463418 1.3125,9.28876367 1.3125,8.97212305 L1.3125,7.49556055 Z M2.625,21.112748 L2.625,10.8588418 L8.53125,10.8588418 L8.53125,21.6869668 L3.19921875,21.6869668 C2.88257812,21.6869668 2.625,21.4293887 2.625,21.112748 Z M9.84375,21.6869668 L9.84375,10.8588418 L11.15625,10.8588418 L11.15625,21.6869668 L9.84375,21.6869668 Z M18.375,21.112748 C18.375,21.4293887 18.1174219,21.6869668 17.8007812,21.6869668 L12.46875,21.6869668 L12.46875,10.8588418 L18.375,10.8588418 L18.375,21.112748 Z M19.6875,8.97212305 C19.6875,9.28876367 19.4299219,9.5463418 19.1132812,9.5463418 L19.03125,9.5463418 L12.46875,9.5463418 L12.46875,6.9213418 L19.1132812,6.9213418 C19.4299219,6.9213418 19.6875,7.17891992 19.6875,7.49556055 L19.6875,8.97212305 Z" id="Shape"></path>
                </g>
            </g>
        </g>
    </g>
</svg>