<?xml version="1.0" encoding="UTF-8"?>
<svg width="26px" height="26px" viewBox="0 0 26 26" version="1.1" xmlns="http://www.w3.org/2000/svg" xmlns:xlink="http://www.w3.org/1999/xlink">
    <title>refresh</title>
    <g id="Page-1" stroke="none" stroke-width="1" fill="none" fill-rule="evenodd">
        <g id="UI/for_flow/Home_Mission_News_Notification/no_applewallet2_newlayout" transform="translate(-205.000000, -237.000000)" fill="#4D4D4D" fill-rule="nonzero">
            <g id="Group-9" transform="translate(193.000000, 225.000000)">
                <g id="refresh" transform="translate(12.000000, 12.000000)">
                    <path d="M12.9765895,21.3935399 C17.5999734,21.3935399 21.3479666,17.6455466 21.3479666,13.0221627 C21.3479666,8.39877882 17.5999734,4.65078562 12.9765895,4.65078562 C8.35320556,4.65078562 4.60521236,8.39877882 4.60521236,13.0221627 C4.61033855,17.6434216 8.35533056,21.3884137 12.9765895,21.3935399 L12.9765895,21.3935399 Z M12.9765895,6.51109164 C16.5725547,6.51109164 19.4876606,9.42619746 19.4876606,13.0221627 C19.4876606,16.618128 16.5725547,19.5332338 12.9765895,19.5332338 C9.3806242,19.5332338 6.46551838,16.618128 6.46551838,13.0221627 C6.46987479,9.42800349 9.38243023,6.51544805 12.9765895,6.51109164 Z" id="Shape"></path>
                    <path d="M12.9765895,0 C12.4628801,0 12.0464365,0.416464239 12.0464365,0.930173563 C12.0464365,1.44388289 12.4628801,1.86032658 12.9765895,1.86032658 C18.3474508,1.83812568 22.9791512,5.62901361 24.0191352,10.8982714 C25.0591191,16.1675292 22.2150334,21.4338995 17.2384837,23.4539485 C12.2619341,25.4739975 6.55189371,23.6798629 3.62504251,19.1765101 C0.698191317,14.6731573 1.37730546,8.72653775 5.24413446,4.9990349 L5.18107009,5.48011004 C5.11428788,5.98955557 5.47313741,6.45668045 5.98258294,6.52346266 C6.49202847,6.59024487 6.95915335,6.23139536 7.02593557,5.72194983 L7.38795112,2.95511667 C7.43017752,2.45249633 7.08250718,2.00048054 6.58588018,1.91232213 L3.81904703,1.55058562 C3.48474783,1.49742024 3.14795739,1.63006156 2.93969227,1.89691011 C2.73142715,2.16375866 2.68457013,2.52268197 2.8173493,2.83405345 C2.95012848,3.14542494 3.24157946,3.36008244 3.57832343,3.39452096 L4.15752971,3.47042144 C-0.423470901,7.72127523 -1.3312905,14.6303166 1.99608359,19.9202982 C5.32345768,25.2102799 11.9442168,27.3838799 17.7595835,25.0954666 C23.5749501,22.8070533 26.9388927,16.704359 25.7688628,10.5654377 C24.5988328,4.42651643 19.2260057,-0.0110185545 12.9765895,0 L12.9765895,0 Z" id="Path"></path>
                    <path d="M12.3197154,13.6806181 L14.2916398,15.6525424 C14.6566122,16.0050446 15.2367541,16.0000033 15.5955456,15.6412118 C15.954337,15.2824204 15.9593783,14.7022785 15.6068762,14.3373061 L13.9067425,12.6369864 L13.9067425,10.2317037 C13.9067425,9.71799437 13.4902988,9.30155068 12.9765895,9.30155068 C12.4628801,9.30155068 12.0464365,9.71799437 12.0464365,10.2317037 L12.0464365,13.0221627 C12.047747,13.2689741 12.1458758,13.5054115 12.3197154,13.6806181 Z" id="Path"></path>
                </g>
            </g>
        </g>
    </g>
</svg>