<?xml version="1.0" encoding="UTF-8"?>
<svg width="27px" height="27px" viewBox="0 0 27 27" version="1.1" xmlns="http://www.w3.org/2000/svg" xmlns:xlink="http://www.w3.org/1999/xlink">
    <title>booking</title>
    <g id="Page-1" stroke="none" stroke-width="1" fill="none" fill-rule="evenodd">
        <g id="UI/for_flow/Home_Mission_News_Notification/no_applewallet2_newlayout" transform="translate(-277.000000, -236.000000)" fill="#4D4D4D">
            <g id="Group-2" transform="translate(266.000000, 225.000000)">
                <g id="booking" transform="translate(12.000000, 12.000000)">
                    <path d="M22.30625,1.56899414 L20.2929688,1.56899414 L20.2929688,0.732421875 C20.2929688,0.327929687 19.9650391,0 19.5605469,0 C19.1560547,0 18.828125,0.327929688 18.828125,0.732421875 L18.828125,1.56899414 L15.5859375,1.56899414 L15.5859375,0.732421875 C15.5859375,0.327929687 15.2580078,0 14.8535156,0 C14.4490234,0 14.1210938,0.327929688 14.1210938,0.732421875 L14.1210938,1.56899414 L10.8789063,1.56899414 L10.8789063,0.732421875 C10.8789063,0.327929687 10.5509766,0 10.1464844,0 C9.74199219,0 9.4140625,0.327929688 9.4140625,0.732421875 L9.4140625,1.56899414 L6.171875,1.56899414 L6.171875,0.732421875 C6.171875,0.327929687 5.84394531,0 5.43945313,0 C5.03496094,0 4.70703125,0.327929688 4.70703125,0.732421875 L4.70703125,1.56899414 L2.69365234,1.56899414 C1.20839844,1.56899414 0,2.77734375 0,4.26269531 L0,22.3062988 C0,23.7916016 1.20839844,25 2.69365234,25 L22.30625,25 C23.7915527,25 25,23.7916016 25,22.3062988 L25,4.26269531 C25,2.77734375 23.7915527,1.56899414 22.30625,1.56899414 Z M2.69365234,3.03383789 L4.70703125,3.03383789 L4.70703125,3.87045898 C4.70703125,4.27495117 5.03496094,4.60288086 5.43945313,4.60288086 C5.84394531,4.60288086 6.171875,4.27495117 6.171875,3.87045898 L6.171875,3.03383789 L9.41396484,3.03383789 L9.41396484,3.87045898 C9.41396484,4.27495117 9.74189453,4.60288086 10.1463867,4.60288086 C10.5508789,4.60288086 10.8788086,4.27495117 10.8788086,3.87045898 L10.8788086,3.03383789 L14.1209961,3.03383789 L14.1209961,3.87045898 C14.1209961,4.27495117 14.4489258,4.60288086 14.853418,4.60288086 C15.2579102,4.60288086 15.5858398,4.27495117 15.5858398,3.87045898 L15.5858398,3.03383789 L18.8280273,3.03383789 L18.8280273,3.87045898 C18.8280273,4.27495117 19.155957,4.60288086 19.5604492,4.60288086 C19.9649414,4.60288086 20.2928711,4.27495117 20.2928711,3.87045898 L20.2928711,3.03383789 L22.3061523,3.03383789 C22.9838379,3.03383789 23.5351562,3.58510742 23.5351562,4.26269531 L23.5351562,6.27602539 L1.46484375,6.27602539 L1.46484375,4.26269531 C1.46484375,3.58510742 2.01611328,3.03383789 2.69365234,3.03383789 L2.69365234,3.03383789 Z M22.30625,23.5351563 L2.69365234,23.5351563 C2.01611328,23.5351563 1.46484375,22.9838867 1.46484375,22.3062988 L1.46484375,7.74086914 L23.5351562,7.74086914 L23.5351562,22.3062988 C23.5351562,22.9838867 22.9838379,23.5351563 22.30625,23.5351563 Z" id="Shape" stroke="#4D4D4D" stroke-width="0.5"></path>
                    <path d="M7.40068359,10.198584 L4.26264648,10.198584 C3.8581543,10.198584 3.53022461,10.5265137 3.53022461,10.9310059 L3.53022461,14.0689941 C3.53022461,14.4734863 3.8581543,14.801416 4.26264648,14.801416 L7.40073242,14.801416 C7.80522461,14.801416 8.1331543,14.4734863 8.1331543,14.0689941 L8.1331543,10.9310059 C8.13310547,10.5265137 7.80522461,10.198584 7.40068359,10.198584 L7.40068359,10.198584 Z M6.66826172,13.3365723 L4.99501953,13.3365723 L4.99501953,11.6634277 L6.66826172,11.6634277 L6.66826172,13.3365723 Z" id="Shape"></path>
                    <path d="M20.7372559,10.198584 L17.5992676,10.198584 C17.1947754,10.198584 16.8668457,10.5265137 16.8668457,10.9310059 L16.8668457,14.0689941 C16.8668457,14.4734863 17.1947754,14.801416 17.5992676,14.801416 L20.7372559,14.801416 C21.141748,14.801416 21.4696777,14.4734863 21.4696777,14.0689941 L21.4696777,10.9310059 C21.4696777,10.5265137 21.141748,10.198584 20.7372559,10.198584 L20.7372559,10.198584 Z M20.004834,13.3365723 L18.3316895,13.3365723 L18.3316895,11.6634277 L20.004834,11.6634277 L20.004834,13.3365723 Z" id="Shape"></path>
                    <path d="M7.40068359,16.4746094 L4.26264648,16.4746094 C3.8581543,16.4746094 3.53022461,16.8025391 3.53022461,17.2070312 L3.53022461,20.3450195 C3.53022461,20.7495117 3.8581543,21.0774414 4.26264648,21.0774414 L7.40073242,21.0774414 C7.80522461,21.0774414 8.1331543,20.7495117 8.1331543,20.3450195 L8.1331543,17.2070312 C8.13310547,16.8025391 7.80522461,16.4746094 7.40068359,16.4746094 Z M6.66826172,19.6125977 L4.99501953,19.6125977 L4.99501953,17.9394531 L6.66826172,17.9394531 L6.66826172,19.6125977 Z" id="Shape"></path>
                    <path d="M20.7372559,16.4746094 L17.5992676,16.4746094 C17.1947754,16.4746094 16.8668457,16.8025391 16.8668457,17.2070312 L16.8668457,20.3450195 C16.8668457,20.7495117 17.1947754,21.0774414 17.5992676,21.0774414 L20.7372559,21.0774414 C21.141748,21.0774414 21.4696777,20.7495117 21.4696777,20.3450195 L21.4696777,17.2070312 C21.4696777,16.8025391 21.141748,16.4746094 20.7372559,16.4746094 Z M20.004834,19.6125977 L18.3316895,19.6125977 L18.3316895,17.9394531 L20.004834,17.9394531 L20.004834,19.6125977 Z" id="Shape"></path>
                    <path d="M14.0689941,16.4746094 L10.9309082,16.4746094 C10.526416,16.4746094 10.1984863,16.8025391 10.1984863,17.2070312 L10.1984863,20.3450195 C10.1984863,20.7495117 10.526416,21.0774414 10.9309082,21.0774414 L14.0689941,21.0774414 C14.4734863,21.0774414 14.801416,20.7495117 14.801416,20.3450195 L14.801416,17.2070312 C14.801416,16.8025391 14.4734863,16.4746094 14.0689941,16.4746094 Z M13.3365723,19.6125977 L11.6633301,19.6125977 L11.6633301,17.9394531 L13.3365723,17.9394531 L13.3365723,19.6125977 Z" id="Shape"></path>
                    <path d="M13.6462402,10.8727051 L11.9453613,12.5736816 L11.3537598,11.9820801 C11.0677734,11.6960449 10.6040039,11.6960449 10.3179688,11.9820801 C10.0319336,12.2681152 10.0319336,12.7318359 10.3179688,13.0178711 L11.4274902,14.1273926 C11.5648438,14.2647461 11.751123,14.3419434 11.9453613,14.3419434 C12.1396484,14.3419434 12.3259277,14.2647461 12.4632813,14.1273926 L14.6820801,11.9084961 C14.9680664,11.6224609 14.9680664,11.1587402 14.6820801,10.8727051 C14.3959961,10.5866699 13.9322754,10.5866699 13.6462402,10.8727051 L13.6462402,10.8727051 Z" id="Path"></path>
                </g>
            </g>
        </g>
    </g>
</svg>