<?xml version="1.0" encoding="UTF-8"?>
<svg width="29px" height="29px" viewBox="0 0 29 29" version="1.1" xmlns="http://www.w3.org/2000/svg" xmlns:xlink="http://www.w3.org/1999/xlink">
    <title>icon/redeem_gift</title>
    <g id="Page-1" stroke="none" stroke-width="1" fill="none" fill-rule="evenodd">
        <g id="UI/for_flow/Home_Mission_News_Notification/no_applewallet2_newlayout" transform="translate(-125.000000, -235.000000)" fill="#4D4D4D">
            <g id="Group" transform="translate(114.000000, 220.000000)">
                <g id="icon/redeem_gift" transform="translate(11.264397, 15.428643)">
                    <path d="M24.9044932,15.1736676 L24.9044932,11.660825 L25.7309541,11.660825 C26.1873925,11.660825 26.5574151,11.2899064 26.5574151,10.8323629 L26.5574151,7.57370499 C26.5574151,6.20322898 25.4451428,5.08826358 24.0779772,5.08826358 L21.0698489,5.08826358 C22.4308421,2.76181883 20.6858279,-0.120727489 18.0311886,0.00390643996 C16.8485382,0.0586547658 15.8049907,0.713866819 15.2386589,1.75839416 L14.0209021,4.01766035 L12.8023186,1.75657106 C12.2370339,0.713866819 11.1934313,0.0586547658 10.0107258,0.00390643996 C7.35630698,-0.120175033 5.61057634,2.76104539 6.97201036,5.08826358 L4.1323598,5.08826358 C2.76519412,5.08826358 1.65292187,6.20322898 1.65292187,7.57370499 L1.65292187,10.8324182 C1.65292187,11.2899617 2.02294446,11.6608802 2.47938281,11.6608802 L3.30584375,11.6608802 L3.30584375,16.6870086 L0.826460937,16.6870086 C0.370022588,16.6870086 0,17.0579271 0,17.5154706 L0,27.4572362 C0,27.9147798 0.370022588,28.2856983 0.826460937,28.2856983 L4.1323598,28.2856983 C4.53826036,28.2856983 4.87516058,27.9921235 4.94487738,27.6054048 C6.56462177,28.0502971 8.3203277,28.2856983 10.0313377,28.2856983 L17.4111225,28.2856983 C19.2164293,28.2856983 20.9411622,27.4241994 22.0285789,25.9803021 C22.0453881,25.9596955 27.6992825,19.027099 27.7152099,19.0058294 C28.0391588,18.5729807 28.2103921,18.0575951 28.2103921,17.5154706 C28.2103921,15.8174438 26.5298039,14.5964622 24.9044932,15.1736676 Z M3.30589886,20.8293741 L3.30589886,26.6287189 L1.65292188,26.6287189 L1.65292188,18.3439327 L3.30589886,18.3439327 L3.30589886,20.8293741 Z M24.0780323,6.74524294 C24.5337542,6.74524294 24.9044932,7.11687965 24.9044932,7.57370499 L24.9044932,10.0039009 L16.5846064,10.0039009 L16.5846064,6.74518769 C16.8455622,6.74524294 23.8252882,6.74524294 24.0780323,6.74524294 Z M23.2515713,11.6608802 L23.2515713,16.5144768 L19.7882172,20.1239991 C19.4841087,19.0961559 18.533866,18.3439327 17.4111225,18.3439327 L16.5846615,18.3439327 L16.5846615,11.6608802 L23.2515713,11.6608802 Z M16.6919648,2.54774238 C16.9786579,2.01898736 17.5077891,1.68679595 18.1074637,1.65900744 C19.4125732,1.59845834 20.3187813,2.98699963 19.6823469,4.18218155 C19.3802224,4.74949796 18.8208347,5.08820834 18.1859434,5.08820834 C17.839619,5.08820834 15.6452759,5.08820834 15.3227048,5.08820834 L16.6919648,2.54774238 Z M13.2787075,6.74524294 C13.8939789,6.74524294 14.3322854,6.74524294 14.9316845,6.74524294 L14.9316845,18.3439327 L13.5930669,18.3439327 C13.4873068,18.3439327 13.3822632,18.3359773 13.2787075,18.3210058 L13.2787075,6.74524294 L13.2787075,6.74524294 Z M9.85354611,1.65718434 C9.88044081,1.65718434 9.90744574,1.65779204 9.93450577,1.65906269 C10.5341805,1.68685119 11.0633668,2.0190426 11.3490678,2.54602977 L12.7193198,5.08831883 C11.4353734,5.08831883 10.6604423,5.08831883 9.85608127,5.08831883 C9.22113485,5.08826358 8.66174711,4.74960845 8.35967773,4.1822368 C7.73658042,3.01224684 8.59098319,1.65718434 9.85354611,1.65718434 Z M3.30589886,10.0039009 L3.30589886,7.57370499 C3.30589886,7.11687965 3.67663791,6.74524294 4.1323598,6.74524294 C4.19347911,6.74524294 11.5275759,6.74524294 11.6257857,6.74524294 L11.6257857,10.0039561 L3.30589886,10.0039561 L3.30589886,10.0039009 Z M11.6257306,11.6608802 L11.6257306,17.3916101 C10.6569702,16.7165097 9.49581352,16.3492926 8.29227565,16.3492926 C7.08873777,16.3492926 5.92752599,16.7165097 4.95882074,17.3916101 L4.95882074,11.6608802 L11.6257306,11.6608802 Z M26.4014479,17.999974 L20.7383497,24.9445588 C20.7310749,24.9535086 20.7239654,24.9625688 20.7170213,24.9718501 C19.9407124,26.0093612 18.7048788,26.6288294 17.4111225,26.6288294 L10.0313928,26.6288294 C8.15995151,26.6288294 6.61598624,26.356248 4.95887585,25.8893127 L4.95887585,20.8294846 L4.95887585,19.5470699 L5.53479721,19.0389768 C7.10681454,17.6522033 9.47773675,17.6522033 11.0498092,19.0389768 C11.7564013,19.6622569 12.6671287,20.0009673 13.5930669,20.0009673 L17.4111225,20.0009673 C17.8668443,20.0009673 18.2375834,20.372604 18.2375834,20.8294293 C18.2375834,21.2862547 17.8668443,21.6578914 17.4111225,21.6578914 L11.5372756,21.6578914 C11.0808373,21.6578914 10.7108147,22.0288099 10.7108147,22.4863534 C10.7108147,22.943897 11.0808373,23.3148155 11.5372756,23.3148155 L17.9650541,23.3148155 C18.6481685,23.3148155 19.3071438,23.0284226 19.7742188,22.5288925 C19.9821016,22.3122195 24.9403712,17.1445521 25.1168952,16.9605845 C25.1183832,16.9590376 25.1195957,16.957325 25.1210837,16.9557781 C25.122682,16.9541207 25.1244456,16.9526843 25.1259887,16.951027 C25.6331302,16.4052011 26.5574702,16.7619768 26.5574702,17.5154706 C26.5574702,17.6913724 26.5035706,17.8586006 26.4014479,17.999974 Z" id="Shape-Copy"></path>
                </g>
            </g>
        </g>
    </g>
</svg>