<?xml version="1.0" encoding="UTF-8"?>
<svg width="32px" height="31px" viewBox="0 0 32 31" version="1.1" xmlns="http://www.w3.org/2000/svg" xmlns:xlink="http://www.w3.org/1999/xlink">
    <title>wallet-filled-money-tool</title>
    <g id="Page-1" stroke="none" stroke-width="1" fill="none" fill-rule="evenodd">
        <g id="UI/for_flow/Home_Mission_News_Notification/no_applewallet2_newlayout" transform="translate(-171.000000, -707.000000)" fill="#FFFFFF" fill-rule="nonzero">
            <g id="wallet-filled-money-tool" transform="translate(171.000000, 707.000000)">
                <path d="M7.47804604,5.90101957 L20.2349242,2.38694471 L19.5593487,1.00887615 C19.1173498,0.113131576 18.0393038,-0.25677104 17.1517125,0.189287997 L5.73161145,5.90101957 L7.47804604,5.90101957 Z" id="Path"></path>
                <path d="M24.1949467,2.48848661 C24.0368692,2.48848661 23.8787198,2.51024559 23.7206064,2.55376354 L20.7236743,3.38060468 L11.5710275,5.90101957 L21.9597979,5.90101957 L26.4875912,5.90101957 L25.9270073,3.82666372 C25.7113981,3.01795506 24.9855138,2.48848661 24.1949467,2.48848661 Z" id="Path"></path>
                <path d="M28.3597979,7.17029325 L27.9501404,7.17029325 L27.3931499,7.17029325 L26.8361595,7.17029325 L22.5850646,7.17029325 L6.96417743,7.17029325 L4.91588995,7.17029325 L3.19101628,7.17029325 L2.87119596,7.17029325 L1.80033689,7.17029325 C1.23256597,7.17029325 0.725884335,7.43502747 0.395283549,7.85207454 C0.244357103,8.04427884 0.129365525,8.26549511 0.0646827625,8.50847036 C0.0251544076,8.6607832 0,8.82034903 0,8.98354136 L0,9.20113114 L0,11.268234 L0,29.1867519 C0,30.1877011 0.804941044,31 1.7967434,31 L28.3562044,31 C29.3480427,31 30.1531412,30.1877011 30.1531412,29.1867519 L30.1531412,24.1277896 L26.8361595,24.1277896 C25.1508141,24.1277896 23.7816957,22.7460946 23.7816957,21.0452678 L23.7816957,19.3843326 L23.7816957,18.8222256 L23.7816957,18.2601187 L23.7816957,17.012604 C23.7816957,16.1785099 24.1122605,15.4206084 24.647726,14.8657545 C25.1220663,14.3725148 25.7581134,14.0388771 26.4696238,13.9554677 C26.5882089,13.940998 26.7103874,13.9337087 26.832566,13.9337087 L28.6580573,13.9337087 L29.2150477,13.9337087 L29.7720382,13.9337087 L30.1531412,13.9337087 L30.1531412,8.98354136 C30.1565413,7.9826284 29.3516002,7.17029325 28.3597979,7.17029325 Z" id="Path"></path>
                <path d="M31.4142617,15.6671739 C31.2345873,15.5003551 31.0225716,15.3734277 30.7854015,15.2900183 C30.6020977,15.2284041 30.4080853,15.1921392 30.2032566,15.1921392 L30.1565413,15.1921392 L30.1206064,15.1921392 L29.5636159,15.1921392 L27.5548568,15.1921392 L26.6439079,15.1921392 C25.6520696,15.1921392 24.8471645,16.0044381 24.8471645,17.0053873 L24.8471645,17.9083486 L24.8471645,18.4704555 L24.8471645,19.0325624 L24.8471645,21.0416413 C24.8471645,22.0425543 25.6520696,22.8548895 26.6439079,22.8548895 L30.1565413,22.8548895 L30.2032566,22.8548895 C30.4080853,22.8548895 30.6021336,22.8186245 30.7854015,22.7569741 C31.0225716,22.6771911 31.2345873,22.5466373 31.4142617,22.3798185 C31.7736103,22.0498073 32,21.5711098 32,21.0416776 L32,17.0053873 C32,16.4758826 31.7736103,15.9971488 31.4142617,15.6671739 Z M28.2426727,19.3843326 C28.2426727,19.884789 27.8402021,20.2909566 27.344301,20.2909566 L26.7477821,20.2909566 C26.251881,20.2909566 25.8494104,19.884789 25.8494104,19.3843326 L25.8494104,18.7823342 C25.8494104,18.4922145 25.9823695,18.234697 26.1943852,18.0715047 C26.3489051,17.9518303 26.5393958,17.8757101 26.7477821,17.8757101 L26.8987086,17.8757101 L27.344301,17.8757101 C27.8402021,17.8757101 28.2426727,18.2818414 28.2426727,18.7823342 L28.2426727,19.3843326 L28.2426727,19.3843326 Z" id="Shape"></path>
            </g>
        </g>
    </g>
</svg>