<?xml version="1.0" encoding="UTF-8"?>
<svg width="21px" height="22px" viewBox="0 0 21 22" version="1.1" xmlns="http://www.w3.org/2000/svg" xmlns:xlink="http://www.w3.org/1999/xlink">
    <title>icon/add_point</title>
    <g id="Page-1" stroke="none" stroke-width="1" fill="none" fill-rule="evenodd">
        <g id="UI/for_flow/Home_Mission_News_Notification/no_applewallet2_newlayout" transform="translate(-255.000000, -155.000000)" fill="#FFFFFF" fill-rule="nonzero">
            <g id="btn/add_point" transform="translate(241.000000, 145.000000)">
                <g id="Group" transform="translate(13.320000, 8.148148)">
                    <g transform="translate(0.000000, 2.222222)" id="icon/add_point">
                        <path d="M13.0144516,1.73237754 C13.3951935,1.85941856 13.6014288,2.21936811 13.5265143,2.54535184 L13.4990323,2.63321386 L13.4990323,2.63321386 C13.3605806,2.97968937 13.0144516,3.18757467 12.6683226,3.04898447 C11.6991613,2.77180406 10.6607742,2.70250896 9.55316129,2.77180406 C5.74574194,3.18757467 2.63058065,6.23655914 2.146,9.97849462 C1.45374194,15.3835125 6.02264516,19.9569892 11.4914839,19.3333333 C15.2989032,18.8482676 18.2756129,15.7299881 18.6909677,11.9187575 C18.8294194,10.8100358 18.6909677,9.77060932 18.4140645,8.8004779 C18.3525305,8.49249967 18.5097841,8.18452144 18.7399671,8.0225477 L18.8294194,7.96893668 L18.8294194,7.96893668 C19.1755484,7.83034648 19.5909032,8.03823178 19.7293548,8.45400239 C20.0754839,9.56272401 20.1447097,10.8100358 20.0062581,12.0573477 C19.5216774,16.7001195 15.6450323,20.442055 11.0069032,20.7192354 C5.19193548,21.135006 0.346129032,16.2843489 0.692258065,10.4635603 C1.0383871,5.75149343 4.70735484,1.87096774 9.41470968,1.45519713 C10.6607742,1.31660693 11.8376129,1.45519713 13.0144516,1.73237754 Z M10.1761935,5.61290323 C10.383871,5.47431302 10.6607742,5.54360812 10.73,5.75149343 L10.73,5.75149343 L12.1837419,8.7311828 L15.5065806,9.21624851 C15.6450323,9.21624851 15.7142581,9.28554361 15.7834839,9.35483871 C15.9911613,9.49342891 15.9911613,9.70131422 15.8527097,9.90919952 L15.8527097,9.90919952 L13.4298065,12.1959379 L13.9836129,15.4528076 C13.9836129,15.5221027 13.9836129,15.660693 13.9143871,15.7299881 C13.7759355,15.9378734 13.5682581,16.0071685 13.3605806,15.8685783 L13.3605806,15.8685783 L10.383871,14.344086 L7.40716129,15.8685783 C7.33793548,15.9378734 7.19948387,15.9378734 7.13025806,15.9378734 C6.92258065,15.8685783 6.71490323,15.660693 6.71490323,15.4528076 L6.71490323,15.4528076 L7.33793548,12.1959379 L4.91503226,9.90919952 C4.84580645,9.83990442 4.77658065,9.77060932 4.77658065,9.70131422 C4.77658065,9.49342891 4.91503226,9.28554361 5.12270968,9.28554361 L5.12270968,9.28554361 L8.44554839,8.8004779 L9.96851613,5.82078853 C10.0377419,5.68219833 10.1069677,5.68219833 10.1761935,5.61290323 Z M17.6525806,0 C18.0679355,0 18.3448387,0.277180406 18.3448387,0.692951016 L18.3448387,0.692951016 L18.3448387,3.11827957 L20.7677419,3.11827957 C21.1830968,3.11827957 21.46,3.39545998 21.46,3.81123059 C21.46,4.15770609 21.1830968,4.5041816 20.7677419,4.5041816 L20.7677419,4.5041816 L18.3448387,4.5041816 L18.3448387,6.92951016 C18.3448387,7.34528076 18.0679355,7.62246117 17.6525806,7.62246117 C17.4449032,7.62246117 17.3064516,7.55316607 17.168,7.41457587 C17.0295484,7.27598566 16.9603226,7.13739546 16.9603226,6.92951016 L16.9603226,6.92951016 L16.9603226,4.5041816 L14.5374194,4.5041816 C14.3297419,4.5041816 14.1912903,4.4348865 14.0528387,4.2962963 C13.9143871,4.15770609 13.8451613,4.01911589 13.8451613,3.81123059 C13.8451613,3.39545998 14.1220645,3.11827957 14.5374194,3.11827957 L14.5374194,3.11827957 L16.9603226,3.11827957 L16.9603226,0.692951016 C16.9603226,0.277180406 17.2372258,0 17.6525806,0 Z" id="Combined-Shape"></path>
                    </g>
                </g>
            </g>
        </g>
    </g>
</svg>