<?xml version="1.0" encoding="UTF-8"?>
<svg width="11px" height="11px" viewBox="0 0 11 11" version="1.1" xmlns="http://www.w3.org/2000/svg" xmlns:xlink="http://www.w3.org/1999/xlink">
    <title>icon/question</title>
    <g id="Page-1" stroke="none" stroke-width="1" fill="none" fill-rule="evenodd">
        <g id="UI/for_flow/Home_Mission_News_Notification/no_applewallet2_newlayout" transform="translate(-151.000000, -161.000000)" fill="#000000">
            <g id="icon/question" transform="translate(151.000000, 161.000000)">
                <path d="M5.5,0 C8.53756612,0 11,2.46243388 11,5.5 C11,8.53756612 8.53756612,11 5.5,11 C2.46243388,11 0,8.53756612 0,5.5 C0,2.46243388 2.46243388,0 5.5,0 Z M5.5,0.785714286 C2.89637189,0.785714286 0.785714286,2.89637189 0.785714286,5.5 C0.785714286,8.10362811 2.89637189,10.2142857 5.5,10.2142857 C8.10362811,10.2142857 10.2142857,8.10362811 10.2142857,5.5 C10.2142857,2.89637189 8.10362811,0.785714286 5.5,0.785714286 Z" id="Combined-Shape"></path>
                <path d="M5.64732143,8.26534598 C5.94395875,8.26534598 6.1844308,8.02487392 6.1844308,7.72823661 C6.1844308,7.43159929 5.94395875,7.19112723 5.64732143,7.19112723 C5.35068411,7.19112723 5.11021205,7.43159929 5.11021205,7.72823661 C5.11021205,8.02487392 5.35068411,8.26534598 5.64732143,8.26534598 Z M5.64732143,2.35714286 C4.69960268,2.35714286 3.92857143,3.12817411 3.92857143,4.07589286 C3.92857143,4.31320926 4.12094252,4.50558036 4.35825893,4.50558036 C4.59557533,4.50558036 4.78794643,4.31320926 4.78794643,4.07589286 C4.78794643,3.60203348 5.17346205,3.21651786 5.64732143,3.21651786 C6.1211808,3.21651786 6.50669643,3.60203348 6.50669643,4.07589286 C6.50669643,4.54975223 6.1211808,4.93526786 5.64732143,4.93526786 C5.41000502,4.93526786 5.21763393,5.12763895 5.21763393,5.36495536 L5.21763393,6.43917411 C5.21763393,6.67649051 5.41000502,6.86886161 5.64732143,6.86886161 C5.88463783,6.86886161 6.07700893,6.67649051 6.07700893,6.43917411 L6.07700893,5.7402659 C6.8174894,5.54899051 7.36607143,4.87530497 7.36607143,4.07589286 C7.36607143,3.12817411 6.59504018,2.35714286 5.64732143,2.35714286 Z" id="Combined-Shape" fill-rule="nonzero"></path>
            </g>
        </g>
    </g>
</svg>