<?xml version="1.0" encoding="UTF-8"?>
<svg width="113px" height="25px" viewBox="0 0 113 25" version="1.1" xmlns="http://www.w3.org/2000/svg" xmlns:xlink="http://www.w3.org/1999/xlink">
    <title>Domain_Mall_Logo</title>
    <defs>
        <polygon id="path-1" points="0 0 2.08366896 0 2.08366896 2.38012169 0 2.38012169"></polygon>
        <polygon id="path-3" points="0 0 10.809733 0 10.809733 19.6015819 0 19.6015819"></polygon>
    </defs>
    <g id="Page-1" stroke="none" stroke-width="1" fill="none" fill-rule="evenodd">
        <g id="UI/for_flow/Home_Mission_News_Notification/no_applewallet2_newlayout" transform="translate(-30.000000, -78.000000)">
            <g id="components/ui/header" transform="translate(27.705882, 68.000000)">
                <g id="Group-19" transform="translate(2.288876, 10.384615)">
                    <path d="M7.6375732,2.93484862 C9.52243374,2.93484862 10.7953953,3.97749674 11.5248165,6.12769231 L11.5945463,6.33212516 L13.5775379,5.87641026 L13.4937054,5.61843546 C12.5382498,2.64665508 10.5515366,1.14687237 7.5846882,1.14687237 C2.83639878,1.14687237 0,4.80354339 0,10.9306475 C0,16.7395422 2.76666893,20.212467 7.39488982,20.212467 C9.94335916,20.212467 11.5945463,19.3543764 13.0573062,18.6017471 L13.2625784,18.4934463 L13.2625784,10.0571433 L7.4981135,10.0571433 L7.4981135,11.851001 L11.2925142,11.851001 L11.2925142,17.5081935 C9.94982288,18.1752369 8.96870821,18.4238824 7.6375732,18.4238824 C3.92602563,18.4238824 2.04234031,15.793229 2.04234031,10.6037172 C2.04234031,8.80722295 2.44642088,2.93484862 7.6375732,2.93484862" id="Fill-1" fill="#231F20"></path>
                    <g id="Group-5" transform="translate(30.710828, 0.000000)">
                        <mask id="mask-2" fill="white">
                            <use xlink:href="#path-1"></use>
                        </mask>
                        <g id="Clip-4"></g>
                        <polygon id="Fill-3" fill="#231F20" mask="url(#mask-2)" points="0 -6.08431117e-05 0 2.38012169 2.08366896 2.38012169 2.08366896 -6.08431117e-05 1.8513667 -6.08431117e-05"></polygon>
                    </g>
                    <path d="M24.214337,15.5445024 C22.591551,17.1805737 21.6930936,18.0816601 20.099884,18.0816601 C19.5253962,18.0816601 17.6624732,17.8973055 17.6624732,15.4909605 C17.6624732,12.6751412 19.815872,12.1251195 23.5301618,12.1251195 L24.0907428,12.1251195 C24.1373599,12.1314066 24.1873068,12.1338404 24.2272644,12.1344488 L24.2272644,15.5325366 C24.2258933,15.5365928 24.214337,15.5445024 24.214337,15.5445024 L24.214337,15.5445024 Z M30.8296627,4.68522382 L30.8296627,6.75287556 L30.8282916,6.75125308 L30.8243742,6.87963204 L30.8218279,7.48846878 C30.8218279,7.56675359 30.786963,9.37460524 28.5922355,10.0826163 C28.0412522,10.260481 26.9886448,10.3547878 26.0747137,10.4048819 L26.0747137,9.61594959 C26.0747137,6.24605244 24.4066817,4.39256845 21.3869482,4.39256845 C18.9534548,4.39256845 17.180828,5.72787194 16.4036143,8.1575402 L16.3248745,8.38874402 L17.9825254,8.94768941 L18.1014187,8.6816022 C18.6075477,7.5553962 19.2425594,6.15519339 21.2190873,6.15519339 C24.0039722,6.15519339 24.1485245,8.03727365 24.2182544,10.4602492 L24.1782968,10.4602492 L23.4837405,10.4602492 C19.6440937,10.4602492 15.7219855,11.0763871 15.7219855,15.6609155 C15.7219855,18.2234246 17.3861001,19.9465015 19.8648396,19.9465015 C21.864676,19.9465015 23.1452765,18.8622773 24.2503771,17.659409 C24.276232,18.3023178 24.3318592,19.6497899 24.3318592,19.6497899 L26.1883185,19.6497899 L26.166381,19.393032 C26.1469899,19.1030132 26.0747137,17.1542083 26.0747137,15.8574388 L26.0747137,12.0450094 C27.1020538,11.985586 28.2627816,11.9016225 28.6774391,11.80691 C29.6221219,11.5959873 30.3174617,11.2071998 30.8296627,10.7681153 L30.8296627,19.6497899 L32.6757409,19.6497899 L32.6757409,4.68522382 L32.4432428,4.68522382 L30.8296627,4.68522382 Z" id="Fill-6" fill="#231F20"></path>
                    <path d="M44.3233681,15.5445024 C42.6915721,17.1805737 41.7968363,18.0816601 40.2010804,18.0816601 C39.6318811,18.0816601 37.7662159,17.8973055 37.7662159,15.4909605 C37.7662159,12.6751412 39.9170684,12.1251195 43.6366466,12.1251195 L44.2062377,12.1251195 C44.2440406,12.1320151 44.2879156,12.13526 44.3284608,12.1366797 L44.3284608,15.5325366 C44.3259144,15.5365928 44.3233681,15.5445024 44.3233681,15.5445024 M58.3993962,3.25764161 C60.2301965,3.25764161 61.4643756,4.26682602 62.1730346,6.35557004 L62.2402182,6.55067362 L64.1652321,6.10773577 L64.0849253,5.86091554 C63.160613,2.97553238 61.2293312,1.51915109 58.3541501,1.51915109 C55.188885,1.51915109 52.8999439,3.18949732 51.7744727,6.15782993 L51.7674214,6.16452267 C51.7660503,6.1689845 51.7593907,6.1925105 51.748422,6.22921918 C51.689465,6.38822251 51.6346213,6.55168767 51.5823239,6.71819499 C51.224077,7.67708243 50.3279701,9.59059829 48.7347605,10.0858612 C48.1771176,10.2596697 47.1027686,10.3533681 46.1798275,10.4036651 L46.1798275,9.61594959 C46.1798275,6.24605244 44.5117954,4.39256845 41.4881446,4.39256845 C39.0560222,4.39256845 37.2833954,5.72787194 36.5022644,8.1575402 L36.4299882,8.38874402 L38.0864639,8.94768941 L38.2065325,8.6816022 C38.7152078,7.5553962 39.346498,6.15519339 41.3255722,6.15519339 C44.1063438,6.15519339 44.2548135,8.03727365 44.3233681,10.4602492 L43.5861121,10.4602492 C39.7480322,10.4602492 35.8245529,11.0763871 35.8245529,15.6609155 C35.8245529,18.2234246 37.4912139,19.9465015 39.9636855,19.9465015 C41.9697898,19.9465015 43.2531325,18.8622773 44.356862,17.659409 C44.3801705,18.3023178 44.4369729,19.6497899 44.4369729,19.6497899 L46.2948034,19.6497899 L46.2728659,19.393032 C46.2495573,19.1030132 46.1798275,17.1499493 46.1798275,15.8574388 L46.1798275,12.0506881 C47.2159817,11.9906562 48.4011933,11.9044618 48.8199641,11.80691 C49.7760074,11.594162 50.4774192,11.1998986 50.991383,10.7553383 C50.9902078,10.8415327 50.9876615,10.9263074 50.9876615,11.0135159 C50.9876615,16.6526583 53.6691268,20.0253948 58.1643517,20.0253948 C60.6368234,20.0253948 62.2441356,19.1926554 63.6614536,18.4586846 L63.8643753,18.3544401 L63.8643753,10.170636 L58.2624828,10.170636 L58.2624828,11.903245 L61.9483713,11.903245 L61.9483713,17.3959583 C60.6470086,18.0429234 59.6954704,18.285079 58.3993962,18.285079 C54.7961649,18.285079 52.969282,15.7316964 52.969282,10.6975373 C52.969282,8.95296248 53.3643525,3.25764161 58.3993962,3.25764161" id="Fill-8" fill="#231F20"></path>
                    <path d="M68.5301053,7.14565841 L68.5301053,4.92123425 L66.7071398,4.92123425 L66.7071398,19.6590584 L68.5301053,19.6590584 L68.5301053,9.44958424 C70.0198953,7.43304071 70.6680304,6.89964943 72.8860664,6.80473417 L73.104266,6.79276836 L73.104266,4.81901782 L72.8729431,4.82429089 C70.7273791,4.84639722 69.8765182,5.6203216 68.5301053,7.14565841" id="Fill-10" fill="#231F20"></path>
                    <path d="M79.8174682,18.214075 C77.2999463,18.214075 75.9122048,16.0178415 75.9122048,12.0314008 C75.9122048,9.29650297 76.9371944,6.36771838 79.8174682,6.36771838 C82.6912782,6.36771838 83.7150926,9.29650297 83.7150926,12.0314008 C83.7150926,16.0178415 82.3271552,18.214075 79.8174682,18.214075 M79.8174682,4.62922787 C75.5275154,4.62922787 73.9989431,8.61810227 73.9989431,12.3516384 C73.9989431,15.8574185 75.5210517,19.9503346 79.8174682,19.9503346 C84.1101631,19.9503346 85.6295296,15.8574185 85.6295296,12.3516384 C85.6295296,8.61810227 84.1036994,4.62922787 79.8174682,4.62922787" id="Fill-12" fill="#231F20"></path>
                    <path d="M96.4795139,4.92119368 L96.4795139,15.4401565 C95.3134976,16.7663335 94.0961633,18.1150225 92.2745688,18.1150225 C91.5721777,18.1150225 91.0403897,17.9266116 90.6815552,17.5524265 C90.3045047,17.1512676 90.1197989,16.5418224 90.1301801,15.731595 L90.1301801,4.92119368 L88.311132,4.92119368 L88.311132,16.0177604 C88.311132,19.8435753 91.6148775,19.9504563 91.9893816,19.9504563 C93.9398587,19.9504563 95.2968486,18.73258 96.4795139,17.528292 L96.4795139,19.6590178 L98.298562,19.6590178 L98.298562,4.92119368 L98.0713523,4.92119368 L96.4795139,4.92119368 Z" id="Fill-14" fill="#231F20"></path>
                    <g id="Group-18" transform="translate(101.345188, 4.629187)">
                        <mask id="mask-4" fill="white">
                            <use xlink:href="#path-3"></use>
                        </mask>
                        <g id="Clip-17"></g>
                        <path d="M5.39270293,13.4858757 C3.99712657,13.4858757 2.92179826,12.7855715 1.82179028,11.1612632 L1.82179028,4.05235405 C1.9095402,3.82987107 3.16056423,1.83340577 5.37076545,1.83340577 C8.43829126,1.83340577 8.89525683,5.61237143 8.89525683,7.86741996 C8.89525683,9.18142836 8.64865603,13.4858757 5.39270293,13.4858757 M5.51022515,0 C4.11347357,0 2.88301592,0.68651311 1.82179028,1.97496741 L1.82179028,0.292046936 L0,0.292046936 L0,19.6016225 L1.82179028,19.6016225 L1.82179028,13.3670288 C2.67128006,14.4285383 3.76737063,15.3213096 5.69865244,15.3213096 C10.3141418,15.3213096 10.8098897,9.93953354 10.8098897,7.62567 C10.8098897,2.99226423 8.72759179,0 5.51022515,0" id="Fill-16" fill="#231F20" mask="url(#mask-4)"></path>
                    </g>
                </g>
            </g>
        </g>
    </g>
</svg>